<svg width="139" height="33" viewBox="0 0 139 33" fill="none" xmlns="http://www.w3.org/2000/svg">
<path fill-rule="evenodd" clip-rule="evenodd" d="M111.409 32.4232C111.409 32.4232 106.562 32.4232 103.561 32.4232C95.7902 32.4232 90.1045 26.5491 90.1045 19.1486V0H97.8749V19.4765C97.8749 22.4829 99.9597 25.0268 103.561 25.0268C107.114 25.0268 109.246 22.4829 109.246 19.4765V0H126.276C134.286 0 138.244 5.84569 138.244 11.5993C138.244 17.7212 134.286 23.1526 126.276 23.1526H119.234L119.283 32.4232H111.409ZM119.234 6.72024V16.4324H125.816C128.44 16.4324 130.649 14.269 130.649 11.5993C130.649 8.74552 128.44 6.72024 125.816 6.72024H119.234Z" fill="#E2B400"/>
<path d="M0.85376 32.4025H21.8445V25.002H8.59859V0H0.85376V32.4025Z" fill="white"/>
<path d="M25.1353 19.1486C25.1353 26.4558 30.5287 32.2749 37.9429 32.4204L37.9412 32.4232H51.3736V0H43.7597V19.4227C43.7597 22.4292 41.6852 24.9731 38.2277 24.9731C34.7241 24.9731 32.6957 22.4292 32.6957 19.4227V0H25.1353V19.1486Z" fill="white"/>
<path d="M65.4874 32.3817H56.3135L67.147 16.05L56.6362 0H65.6718L71.8492 9.57371L77.9345 0H86.6013L76.1366 15.7215L87.1084 32.3817H77.9345L71.6648 22.3387L65.4874 32.3817Z" fill="white"/>
</svg>
